<?xml version="1.0" standalone="no"?>
<!DOCTYPE svg PUBLIC "-//W3C//DTD SVG 20010904//EN"
 "http://www.w3.org/TR/2001/REC-SVG-20010904/DTD/svg10.dtd">
<svg version="1.0" xmlns="http://www.w3.org/2000/svg"
 width="1772.000000pt" height="1828.000000pt" viewBox="0 0 1772.000000 1828.000000"
 preserveAspectRatio="xMidYMid meet">

<g transform="translate(0.000000,1828.000000) scale(0.100000,-0.100000)"
fill="#000000" stroke="none">
<path d="M8857 18260 c-3 -8 -10 -51 -17 -95 -83 -586 -303 -1246 -592 -1780
-272 -501 -540 -869 -1161 -1593 -543 -632 -700 -833 -868 -1102 -264 -423
-424 -887 -479 -1385 -15 -137 -12 -482 5 -630 33 -280 90 -517 189 -776 74
-196 71 -198 73 54 6 916 293 1728 888 2517 243 322 423 518 1095 1195 712
717 840 860 1041 1163 203 306 311 596 341 914 39 423 -116 923 -446 1433 -40
62 -67 94 -69 85z"/>
<path d="M9940 16272 c0 -21 -145 -328 -221 -466 -87 -159 -270 -437 -374
-566 -245 -305 -473 -526 -1145 -1105 -179 -154 -388 -343 -465 -420 -572
-572 -985 -1271 -1170 -1980 -76 -290 -107 -530 -107 -830 -1 -355 43 -635
153 -975 l40 -125 82 -79 c418 -401 1027 -705 1597 -795 216 -35 367 -44 613
-38 490 11 900 115 1337 338 394 200 744 484 1014 821 647 809 863 1927 555
2878 -151 463 -451 1027 -796 1492 l-95 128 -66 -71 c-182 -197 -693 -584
-1534 -1163 -355 -244 -700 -574 -954 -912 -402 -535 -613 -1157 -614 -1806
l0 -127 43 -29 c168 -114 440 -215 707 -264 170 -31 457 -31 635 1 518 91 917
326 1206 710 94 124 210 351 263 511 102 313 129 647 77 950 -19 106 -75 327
-100 392 l-10 28 -93 -67 c-51 -37 -210 -143 -353 -236 -143 -93 -301 -200
-352 -238 -241 -183 -459 -433 -572 -656 -40 -78 -63 -133 -57 -133 2 0 34 17
72 38 168 92 410 182 579 216 88 17 248 37 254 30 6 -6 -59 -184 -91 -249 -81
-160 -209 -324 -331 -422 -133 -107 -356 -205 -567 -250 -126 -26 -382 -24
-509 5 -52 12 -96 24 -99 27 -10 10 20 181 58 330 87 343 267 699 497 985 89
111 257 278 362 360 274 215 1367 960 1408 960 27 0 183 -305 258 -505 78
-207 141 -454 177 -690 19 -130 16 -478 -6 -630 -105 -733 -457 -1316 -1013
-1679 -233 -152 -499 -252 -808 -303 -171 -28 -659 -25 -843 5 -489 80 -913
243 -1175 451 -52 41 -77 68 -81 88 -38 180 -57 570 -37 792 34 384 128 715
306 1076 193 394 440 731 795 1085 247 247 491 450 1135 945 565 435 652 513
751 670 74 119 107 226 112 366 5 128 -9 219 -54 356 -29 89 -179 401 -291
608 -86 157 -103 185 -103 167z"/>
<path d="M14820 8955 c-218 -306 -631 -534 -1253 -694 -386 -100 -746 -159
-1712 -280 -759 -96 -901 -116 -1175 -162 -668 -114 -1130 -267 -1450 -480
-111 -73 -277 -235 -334 -325 l-39 -61 -48 71 c-26 40 -89 112 -141 162 -251
243 -645 419 -1228 549 -369 82 -682 131 -1530 236 -1087 135 -1492 204 -1920
330 -541 159 -901 374 -1102 660 l-43 61 -3 -623 -2 -623 47 -80 c168 -280
524 -479 1108 -619 395 -96 782 -148 1820 -247 1176 -112 1660 -189 2115 -336
427 -137 725 -326 880 -556 25 -37 47 -67 50 -67 3 0 25 29 49 65 181 268 564
482 1116 622 436 111 852 170 1915 272 1341 128 1816 211 2283 399 275 110
499 282 610 467 l47 80 -2 627 -3 628 -55 -76z"/>
<path d="M9545 8536 c-224 -95 -465 -234 -622 -358 l-63 -50 0 -339 0 -340 61
51 c166 138 434 286 672 371 l67 24 0 342 c0 189 -3 343 -7 342 -5 0 -53 -19
-108 -43z"/>
<path d="M5427 6528 c4 -22 -2 -26 -112 -58 -136 -39 -165 -57 -165 -104 0
-44 76 -265 152 -445 54 -126 66 -145 94 -159 33 -15 35 -15 159 43 69 32 126
56 128 54 2 -2 24 -43 50 -90 25 -47 66 -119 90 -160 l45 -73 -113 -78 c-123
-85 -137 -105 -110 -161 33 -70 299 -405 366 -461 49 -42 69 -35 170 57 50 45
96 86 103 90 7 6 29 -8 61 -40 28 -27 89 -85 137 -128 l88 -80 -76 -95 c-88
-109 -99 -129 -90 -163 13 -55 481 -377 546 -377 40 0 54 16 124 138 32 56 62
102 66 102 4 0 54 -24 111 -53 57 -29 132 -65 165 -80 l62 -27 -49 -125 c-53
-135 -55 -164 -14 -191 60 -39 529 -184 596 -184 44 0 64 36 93 165 15 66 29
121 31 124 2 2 66 -6 142 -17 76 -12 159 -24 186 -28 26 -3 47 -11 47 -18 0
-6 -5 -63 -10 -126 -8 -82 -7 -122 1 -141 20 -50 49 -54 361 -54 277 0 287 1
315 21 l28 22 -3 144 -2 144 157 24 c87 12 171 23 187 24 l30 1 29 -125 c15
-69 35 -133 44 -142 24 -27 74 -22 239 23 198 54 395 125 417 151 26 31 21 64
-29 187 -25 62 -44 114 -42 116 2 1 78 38 170 83 120 58 169 77 176 69 5 -7
35 -58 67 -114 76 -132 93 -141 179 -94 163 88 452 299 475 345 18 37 10 54
-85 171 l-75 94 43 38 c24 21 86 79 138 129 l95 92 95 -88 c97 -90 133 -110
169 -91 52 28 385 449 396 502 10 43 -8 64 -120 139 -58 39 -105 75 -105 81 0
6 8 23 19 37 10 15 49 81 86 147 36 66 70 124 74 128 5 5 62 -17 129 -48 130
-60 159 -63 188 -20 28 43 122 270 174 422 73 211 76 206 -158 274 -81 24 -82
24 -76 52 l6 28 -49 -6 c-92 -10 -242 -25 -257 -25 -8 0 -17 -14 -21 -32 -17
-79 -113 -317 -195 -484 -318 -643 -838 -1161 -1485 -1479 -655 -322 -1366
-412 -2085 -265 -1113 228 -2049 1052 -2415 2127 -23 68 -44 125 -46 128 -3 2
-54 9 -114 14 -61 6 -131 14 -156 17 -45 5 -46 5 -42 -18z"/>
<path d="M6090 6482 c0 -3 25 -39 57 -80 81 -109 269 -298 388 -393 106 -84
287 -211 293 -205 1 2 -11 37 -27 79 -44 109 -98 274 -136 416 -19 68 -36 125
-38 127 -1 2 -110 14 -242 29 -132 14 -252 27 -267 28 -16 2 -28 1 -28 -1z"/>
<path d="M11465 6470 c-88 -10 -210 -23 -270 -30 l-111 -12 -28 -112 c-32
-127 -101 -337 -145 -444 l-30 -73 37 21 c124 70 372 270 494 399 102 108 239
279 216 270 -2 -1 -75 -9 -163 -19z"/>
<path d="M6810 6391 c0 -42 121 -396 195 -571 64 -151 69 -158 153 -196 124
-58 343 -141 470 -180 120 -36 314 -86 318 -81 2 1 -15 72 -36 157 -39 156
-99 455 -120 607 l-12 83 -67 20 c-153 45 -419 100 -697 144 -175 28 -204 31
-204 17z"/>
<path d="M10695 6374 c-330 -52 -730 -143 -751 -170 -6 -8 -15 -42 -18 -77
-12 -103 -74 -422 -117 -596 -22 -90 -38 -165 -36 -167 7 -7 303 75 435 121
146 50 211 76 343 137 l87 40 50 106 c74 159 146 360 201 560 l20 72 -32 -1
c-18 0 -99 -12 -182 -25z"/>
<path d="M5970 6356 c0 -18 78 -193 141 -317 326 -643 872 -1152 1543 -1439
54 -23 99 -40 102 -38 2 3 -36 36 -84 75 -113 92 -309 293 -402 413 -87 113
-198 281 -265 403 -47 85 -51 89 -124 129 -122 66 -258 154 -381 246 -129 97
-400 360 -479 466 -28 38 -51 66 -51 62z"/>
<path d="M11690 6288 c-77 -102 -296 -320 -416 -415 -126 -99 -279 -202 -412
-277 l-101 -57 -57 -101 c-192 -342 -457 -652 -739 -866 l-30 -22 45 16 c25
10 93 39 153 65 665 297 1234 864 1532 1527 53 119 87 202 82 202 -1 0 -27
-33 -57 -72z"/>
<path d="M7954 6128 c3 -13 13 -66 21 -118 27 -159 83 -418 121 -556 l36 -132
122 -16 c410 -54 817 -54 1206 0 63 9 119 20 123 23 25 24 192 799 176 816
-14 13 -275 -111 -374 -178 -89 -60 -180 -151 -246 -247 -85 -124 -162 -170
-280 -170 -66 0 -143 25 -194 64 -19 15 -62 67 -96 116 -111 163 -270 281
-514 383 -100 41 -107 42 -101 15z"/>
<path d="M10435 5393 c-115 -49 -350 -124 -514 -163 -92 -23 -177 -44 -190
-48 -18 -6 -30 -25 -55 -97 -91 -253 -220 -497 -328 -620 -16 -19 -25 -35 -19
-35 20 0 183 65 259 104 301 152 575 396 807 721 58 81 111 166 103 164 -2 0
-30 -12 -63 -26z"/>
<path d="M7226 5398 c30 -53 152 -221 219 -303 202 -245 437 -436 690 -563 98
-49 244 -106 252 -99 2 2 -11 21 -28 43 -116 144 -260 424 -334 652 -12 38
-22 53 -38 57 -240 51 -500 126 -662 190 -99 38 -110 41 -99 23z"/>
<path d="M8211 5093 c130 -350 311 -609 488 -696 76 -37 181 -48 257 -27 143
40 298 204 427 451 56 106 144 316 136 322 -2 2 -71 -4 -154 -14 -344 -41
-837 -34 -1143 17 l-32 5 21 -58z"/>
<path d="M7980 3044 c0 -22 -47 -131 -274 -634 -108 -239 -205 -443 -215 -454
-10 -10 -43 -27 -72 -37 l-54 -18 180 0 c129 0 173 3 155 10 -39 16 -60 40
-60 68 1 14 18 67 40 116 l38 90 185 3 185 2 41 -103 c47 -121 46 -141 -13
-168 -40 -18 -31 -19 688 -16 l730 2 32 170 c17 94 30 171 29 173 -1 2 -16
-26 -33 -62 -39 -84 -108 -157 -175 -187 -45 -20 -72 -24 -195 -27 l-143 -4 3
492 3 492 33 29 c18 16 43 29 57 29 14 0 25 5 25 10 0 6 -93 10 -260 10 -167
0 -260 -4 -260 -10 0 -5 12 -10 26 -10 16 0 39 -13 60 -34 l34 -34 0 -471 c0
-402 -2 -476 -15 -501 -38 -74 -156 -81 -227 -13 -16 16 -122 228 -279 564
-139 296 -257 539 -261 539 -4 0 -8 -7 -8 -16z m5 -603 c38 -94 66 -173 63
-176 -3 -3 -71 -4 -151 -3 l-145 3 75 177 c42 98 79 176 82 174 4 -3 38 -81
76 -175z"/>
<path d="M16085 3009 c-38 -112 -455 -1023 -482 -1051 -15 -16 -48 -35 -73
-43 -42 -13 -34 -14 135 -14 169 0 178 1 144 15 -61 25 -65 52 -23 152 20 48
38 95 41 105 5 16 21 17 192 15 l186 -3 37 -90 c21 -49 37 -102 38 -116 0 -28
-21 -52 -60 -68 -17 -7 212 -10 703 -10 400 -1 727 1 727 3 0 2 13 75 30 162
35 184 36 208 9 138 -44 -112 -141 -202 -239 -223 -28 -6 -103 -11 -165 -11
l-115 0 0 489 0 489 31 31 c20 21 40 31 60 31 16 0 29 5 29 10 0 6 -95 10
-265 10 -170 0 -265 -4 -265 -10 0 -5 13 -10 29 -10 39 0 78 -34 91 -78 8 -25
10 -186 8 -492 -3 -415 -5 -457 -21 -481 -9 -14 -29 -31 -43 -37 -58 -27 -158
-2 -194 48 -11 15 -130 263 -265 551 -135 288 -250 528 -254 532 -5 5 -17 -15
-26 -44z m19 -576 c36 -89 66 -164 66 -167 0 -3 -67 -6 -150 -6 -82 0 -150 2
-150 5 0 5 140 336 147 349 8 12 12 2 87 -181z"/>
<path d="M280 3036 c-158 -35 -250 -147 -250 -305 0 -161 42 -210 320 -366
220 -124 264 -160 275 -226 10 -58 -24 -122 -83 -157 -43 -25 -56 -27 -147
-27 -81 0 -109 4 -146 21 -97 45 -164 134 -176 235 -3 27 -9 49 -14 49 -15 0
-49 -111 -54 -178 -7 -82 5 -108 65 -141 95 -53 309 -78 446 -52 191 37 307
151 321 318 8 96 -14 167 -69 227 -31 33 -95 75 -233 152 -234 132 -269 155
-285 193 -26 63 8 134 83 173 33 17 59 22 122 22 127 0 214 -51 238 -141 6
-24 14 -43 18 -43 3 0 9 33 13 73 3 39 9 92 12 117 l6 46 -183 12 c-212 14
-206 14 -279 -2z"/>
<path d="M1165 3038 c-2 -7 -34 -247 -72 -533 -67 -513 -68 -520 -96 -552 -18
-21 -43 -35 -70 -41 -32 -8 1 -10 133 -10 96 0 162 3 146 7 -16 3 -38 18 -49
33 l-20 27 28 238 c15 131 30 250 34 265 5 24 29 -8 216 -294 l209 -321 12 44
c18 72 81 182 331 577 8 13 17 22 19 19 6 -5 64 -480 64 -517 -1 -35 -23 -61
-62 -70 -19 -5 85 -8 237 -8 237 -1 264 1 222 12 -56 15 -83 37 -96 80 -5 17
-40 254 -76 526 -37 272 -70 504 -74 514 -6 16 -59 -63 -252 -372 -134 -215
-246 -392 -249 -392 -3 0 -122 176 -264 390 -143 215 -261 390 -263 390 -2 0
-5 -6 -8 -12z"/>
<path d="M4161 2898 c1 -144 2 -150 14 -102 17 72 42 108 89 135 35 20 59 24
164 27 l123 4 -3 -495 -3 -495 -24 -25 c-12 -14 -39 -30 -60 -35 -26 -7 41
-10 234 -10 149 0 257 3 240 7 -48 12 -74 29 -90 61 -13 25 -15 96 -13 507 l3
478 120 0 c174 -1 225 -32 251 -155 12 -52 12 -46 13 98 l1 154 -42 -9 c-55
-10 -908 -11 -970 0 l-48 8 1 -153z"/>
<path d="M11250 3044 c-267 -36 -438 -171 -506 -399 -25 -83 -25 -277 0 -359
62 -208 214 -347 426 -392 104 -22 317 -14 418 15 90 26 180 70 250 122 l52
40 0 145 c0 179 9 204 78 204 17 0 32 5 32 10 0 6 -88 10 -245 10 -157 0 -245
-4 -245 -10 0 -5 15 -10 33 -10 63 0 69 -18 65 -192 -3 -151 -4 -156 -30 -190
-38 -50 -108 -82 -191 -86 -137 -8 -227 44 -290 168 -55 109 -70 195 -64 370
5 167 24 243 83 331 70 105 157 151 294 153 184 2 309 -82 368 -246 9 -27 20
-48 25 -48 4 0 6 66 5 147 l-3 147 -60 18 c-128 40 -386 66 -495 52z"/>
<path d="M13586 3039 c-332 -46 -535 -291 -512 -619 18 -260 153 -432 401
-510 98 -31 308 -39 426 -16 235 47 405 199 454 408 21 91 19 238 -5 332 -64
251 -274 397 -589 410 -58 3 -137 1 -175 -5z m259 -88 c56 -25 118 -87 150
-152 47 -92 66 -189 66 -339 0 -247 -62 -397 -199 -477 -60 -35 -167 -43 -243
-18 -96 32 -176 135 -216 278 -23 84 -28 287 -10 386 35 180 124 303 246 338
58 16 149 9 206 -16z"/>
<path d="M2520 3020 c0 -5 12 -10 28 -10 15 0 38 -7 51 -16 50 -35 51 -50 51
-535 0 -396 -2 -455 -16 -485 -18 -37 -40 -53 -89 -65 -16 -4 92 -7 240 -7
197 0 260 3 233 10 -21 5 -49 23 -63 40 l-25 30 0 474 c0 330 3 482 11 497 17
33 51 57 82 57 15 0 27 5 27 10 0 6 -95 10 -265 10 -170 0 -265 -4 -265 -10z"/>
<path d="M3320 3020 c0 -5 8 -10 18 -10 23 0 42 -19 42 -41 0 -9 -88 -134
-195 -278 -107 -144 -195 -266 -195 -272 0 -16 238 -359 279 -402 79 -84 197
-119 384 -115 110 3 118 4 85 15 -21 6 -51 21 -68 33 -26 19 -431 585 -446
624 -4 9 49 80 144 193 82 98 158 186 168 195 28 25 88 48 124 48 16 0 30 5
30 10 0 6 -68 10 -185 10 -117 0 -185 -4 -185 -10z"/>
<path d="M5300 3020 c0 -5 14 -10 31 -10 20 0 40 -10 60 -29 l29 -29 0 -489 0
-489 -29 -28 c-16 -16 -44 -32 -63 -36 -19 -5 84 -8 237 -8 197 0 260 3 233
10 -21 5 -49 23 -63 40 l-25 30 0 485 0 485 29 29 c20 19 40 29 60 29 17 0 31
5 31 10 0 6 -95 10 -265 10 -170 0 -265 -4 -265 -10z"/>
<path d="M6356 3021 c-5 -7 3 -11 21 -11 38 0 72 -25 89 -66 21 -49 21 -919 0
-969 -15 -35 -40 -54 -91 -66 -16 -4 115 -7 292 -8 352 -1 425 6 533 55 81 36
144 104 166 180 47 164 -43 317 -216 364 l-45 13 38 13 c95 33 147 112 147
221 0 135 -76 220 -230 258 -83 21 -693 35 -704 16z m545 -93 c77 -43 113
-182 77 -301 -17 -56 -67 -104 -120 -115 l-43 -9 59 -12 c74 -16 137 -70 160
-138 25 -72 21 -187 -8 -248 -40 -85 -95 -120 -206 -132 l-60 -6 0 492 0 491
51 0 c34 0 64 -7 90 -22z"/>
<path d="M9665 3020 c-4 -6 7 -10 24 -10 20 0 42 -10 63 -29 l33 -29 3 -476
c2 -412 1 -480 -13 -506 -16 -32 -42 -49 -90 -61 -16 -4 92 -7 240 -7 197 0
260 3 233 10 -21 5 -49 23 -63 40 l-25 30 0 477 c0 433 2 479 17 501 25 36 45
49 76 50 15 0 27 5 27 10 0 6 -93 10 -259 10 -163 0 -262 -4 -266 -10z"/>
<path d="M12050 3020 c0 -5 12 -10 26 -10 16 0 39 -13 60 -34 l34 -34 0 -471
c0 -401 -2 -476 -15 -501 -15 -30 -39 -47 -84 -61 -14 -4 174 -7 418 -6 l445
2 32 170 c17 94 30 171 29 173 -1 2 -16 -26 -33 -62 -39 -84 -108 -157 -175
-187 -45 -20 -72 -24 -195 -27 l-143 -4 3 492 3 492 33 29 c18 16 43 29 57 29
14 0 25 5 25 10 0 6 -93 10 -260 10 -167 0 -260 -4 -260 -10z"/>
<path d="M14470 3021 c0 -6 14 -11 31 -11 22 0 40 -9 60 -31 l29 -31 0 -483 0
-483 -25 -30 c-14 -17 -42 -35 -63 -40 -27 -8 60 -10 318 -8 302 2 364 5 415
20 122 36 199 94 235 178 18 42 21 66 18 133 -3 70 -7 89 -33 130 -41 65 -92
105 -172 130 l-67 22 38 7 c55 10 129 86 144 148 43 170 -36 285 -230 334 -81
20 -698 34 -698 15z m527 -82 c45 -17 82 -60 98 -113 31 -105 10 -222 -50
-275 -33 -28 -44 -34 -100 -44 -13 -2 -5 -6 20 -11 145 -27 215 -127 202 -290
-11 -134 -75 -207 -198 -228 -109 -19 -99 -68 -99 487 l0 485 49 0 c27 0 62
-5 78 -11z"/>
<path d="M4812 1191 c-69 -24 -127 -80 -152 -148 -25 -68 -28 -246 -5 -314 20
-57 67 -114 113 -138 47 -24 161 -55 277 -77 101 -18 153 -41 184 -80 17 -22
21 -41 21 -104 0 -134 -42 -168 -210 -169 -167 -1 -211 26 -218 133 -2 37 -10
70 -17 76 -8 6 -44 10 -87 8 l-73 -3 0 -90 c1 -101 13 -135 73 -198 62 -64
115 -77 317 -77 208 0 257 13 323 84 52 57 72 123 72 241 0 156 -41 240 -143
291 -64 33 -113 47 -256 74 -183 34 -211 58 -211 177 0 149 29 173 210 173
172 0 195 -15 208 -133 l7 -62 85 0 85 0 -1 80 c-3 123 -42 193 -138 243 -49
25 -58 27 -231 29 -156 3 -187 1 -233 -16z"/>
<path d="M5707 1203 c-4 -3 -7 -273 -7 -600 l0 -593 84 0 c78 0 84 1 90 23 11
40 7 1137 -4 1158 -9 16 -22 19 -84 19 -40 0 -76 -3 -79 -7z"/>
<path d="M6165 1198 c-3 -7 -4 -276 -3 -598 l3 -585 85 0 85 0 5 415 5 415 41
-70 c23 -38 123 -218 224 -400 101 -181 190 -338 199 -348 12 -15 28 -17 90
-15 l76 3 3 575 c1 316 0 585 -3 598 -5 22 -9 23 -88 20 l-82 -3 -5 -420 -5
-419 -224 404 c-123 223 -231 413 -239 423 -12 13 -31 17 -89 17 -50 0 -75 -4
-78 -12z"/>
<path d="M7413 1192 c-71 -25 -117 -63 -144 -119 -24 -48 -24 -51 -27 -447 -3
-457 -2 -467 73 -542 63 -62 112 -74 310 -74 227 0 291 23 352 128 l28 47 0
230 0 230 -179 3 c-137 2 -181 -1 -188 -10 -13 -21 -9 -124 5 -136 7 -6 53
-12 103 -14 l89 -3 0 -110 c0 -189 -20 -210 -200 -210 -137 0 -177 12 -203 59
-15 27 -17 72 -20 341 -4 378 -1 408 43 452 l33 33 132 0 c185 0 207 -16 219
-159 l6 -66 80 0 80 0 3 82 c2 46 -2 100 -8 121 -16 60 -64 118 -122 149 -51
27 -59 28 -233 30 -154 3 -187 1 -232 -15z"/>
<path d="M8522 1198 c-13 -18 -342 -1170 -336 -1180 3 -4 43 -8 89 -8 l84 0
26 88 c15 48 33 108 42 135 l15 47 207 0 207 0 40 -133 39 -132 88 -3 c77 -2
87 -1 87 14 0 19 -314 1124 -330 1162 -9 21 -15 22 -129 22 -83 0 -122 -4
-129 -12z m212 -456 c44 -158 81 -293 84 -299 3 -10 -34 -13 -167 -13 -94 0
-171 3 -171 6 0 3 36 136 80 296 44 159 80 292 80 294 0 2 3 4 8 4 4 0 43
-129 86 -288z"/>
<path d="M9305 1198 c-3 -7 -4 -276 -3 -598 l3 -585 85 0 85 0 5 225 5 225
105 3 105 3 100 -218 c55 -119 106 -223 113 -230 15 -14 177 -19 186 -5 3 5
-40 102 -95 218 -135 280 -126 249 -73 274 57 28 101 82 120 149 21 71 16 338
-8 392 -23 53 -72 104 -126 130 -45 23 -57 24 -325 27 -223 3 -278 1 -282 -10z
m516 -164 c46 -24 59 -66 59 -199 0 -203 -14 -215 -245 -215 l-155 0 0 215 0
215 155 0 c122 0 163 -3 186 -16z"/>
<path d="M10572 1202 c-12 -8 -342 -1144 -342 -1177 0 -13 14 -15 88 -13 l87
3 39 133 40 132 209 -2 210 -3 14 -50 c8 -27 25 -87 39 -132 l25 -83 84 0 c46
0 86 4 89 8 6 10 -323 1162 -336 1180 -12 14 -224 17 -246 4z m139 -214 c6
-24 42 -155 80 -291 38 -136 69 -252 69 -257 0 -6 -67 -10 -171 -10 -132 0
-170 3 -166 13 2 6 40 141 83 299 44 159 82 288 86 288 4 0 12 -19 19 -42z"/>
<path d="M11867 1204 c-4 -4 -7 -215 -8 -468 0 -497 -2 -513 -52 -550 -25 -19
-42 -21 -151 -21 -184 0 -206 22 -206 214 0 124 2 121 -89 121 -92 0 -94 -3
-89 -161 5 -152 17 -191 76 -252 62 -63 116 -77 307 -77 195 0 249 14 310 82
73 80 70 56 70 613 l0 500 -80 3 c-45 1 -84 0 -88 -4z"/>
<path d="M12552 1193 c-14 -26 -332 -1145 -332 -1166 0 -16 9 -17 87 -15 l88
3 39 133 39 132 208 0 208 0 25 -83 c13 -45 31 -104 39 -132 l14 -50 89 0 c83
0 89 1 86 20 -7 44 -325 1151 -334 1163 -7 8 -46 12 -129 12 -103 0 -120 -2
-127 -17z m138 -167 c0 -3 36 -134 80 -292 44 -158 80 -291 80 -296 0 -4 -77
-8 -171 -8 -133 0 -170 3 -166 13 2 6 40 141 83 300 43 158 82 287 86 287 5 0
8 -2 8 -4z"/>
</g>
</svg>
